<?xml version="1.0" encoding="UTF-8" standalone="no"?>
<!-- Generator: Adobe Illustrator 19.0.0, SVG Export Plug-In . SVG Version: 6.00 Build 0)  -->

<svg
   xmlns:dc="http://purl.org/dc/elements/1.1/"
   xmlns:cc="http://creativecommons.org/ns#"
   xmlns:rdf="http://www.w3.org/1999/02/22-rdf-syntax-ns#"
   xmlns:svg="http://www.w3.org/2000/svg"
   xmlns="http://www.w3.org/2000/svg"
   xmlns:sodipodi="http://sodipodi.sourceforge.net/DTD/sodipodi-0.dtd"
   xmlns:inkscape="http://www.inkscape.org/namespaces/inkscape"
   version="1.1"
   id="Capa_1"
   x="0px"
   y="0px"
   viewBox="0 0 512.001 512.001"
   style="enable-background:new 0 0 512.001 512.001;"
   xml:space="preserve"
   sodipodi:docname="close-white.svg"
   inkscape:version="0.92.4 (5da689c313, 2019-01-14)"><metadata
   id="metadata4715"><rdf:RDF><cc:Work
       rdf:about=""><dc:format>image/svg+xml</dc:format><dc:type
         rdf:resource="http://purl.org/dc/dcmitype/StillImage" /><dc:title></dc:title></cc:Work></rdf:RDF></metadata><defs
   id="defs4713" /><sodipodi:namedview
   pagecolor="#ffffff"
   bordercolor="#666666"
   borderopacity="1"
   objecttolerance="10"
   gridtolerance="10"
   guidetolerance="10"
   inkscape:pageopacity="0"
   inkscape:pageshadow="2"
   inkscape:window-width="1920"
   inkscape:window-height="1048"
   id="namedview4711"
   showgrid="false"
   inkscape:zoom="1.7109342"
   inkscape:cx="256.00049"
   inkscape:cy="256.00049"
   inkscape:window-x="0"
   inkscape:window-y="32"
   inkscape:window-maximized="1"
   inkscape:current-layer="Capa_1" />
<g
   id="g4678">
	<g
   id="g4676">
		<path
   d="M284.286,256.002L506.143,34.144c7.811-7.811,7.811-20.475,0-28.285c-7.811-7.81-20.475-7.811-28.285,0L256,227.717    L34.143,5.859c-7.811-7.811-20.475-7.811-28.285,0c-7.81,7.811-7.811,20.475,0,28.285l221.857,221.857L5.858,477.859    c-7.811,7.811-7.811,20.475,0,28.285c3.905,3.905,9.024,5.857,14.143,5.857c5.119,0,10.237-1.952,14.143-5.857L256,284.287    l221.857,221.857c3.905,3.905,9.024,5.857,14.143,5.857s10.237-1.952,14.143-5.857c7.811-7.811,7.811-20.475,0-28.285    L284.286,256.002z"
   id="path4674" />
	</g>
</g>
<g
   id="g4680">
</g>
<g
   id="g4682">
</g>
<g
   id="g4684">
</g>
<g
   id="g4686">
</g>
<g
   id="g4688">
</g>
<g
   id="g4690">
</g>
<g
   id="g4692">
</g>
<g
   id="g4694">
</g>
<g
   id="g4696">
</g>
<g
   id="g4698">
</g>
<g
   id="g4700">
</g>
<g
   id="g4702">
</g>
<g
   id="g4704">
</g>
<g
   id="g4706">
</g>
<g
   id="g4708">
</g>
<path
   style="opacity:1;fill:none;fill-opacity:0.99024389;fill-rule:evenodd;stroke:#8a8b02;stroke-width:0.58539641;stroke-miterlimit:4;stroke-dasharray:none;stroke-opacity:0.97560975"
   d="M 14.6119,511.01469 C 5.9011467,508.18935 0.51953423,500.88911 0.51953423,491.89818 c 0,-8.58475 -10.16359573,2.28311 115.14377577,-123.1223 L 228.23224,256.11888 115.64127,143.46038 C 5.8234611,33.576715 3.0187163,30.71551 1.7681993,27.295029 -2.7231413,15.010075 5.0643314,1.9783746 17.851639,0.38070604 21.17614,-0.03466295 26.941506,1.1611623 29.665616,2.831106 30.547733,3.3718648 81.833946,54.335654 143.63498,116.08397 L 256.00049,228.35363 368.366,116.08397 C 430.16703,54.335654 481.45324,3.3718648 482.33536,2.831106 c 2.72411,-1.6699437 8.48948,-2.86576895 11.81398,-2.45039996 12.7873,1.59766856 20.57478,14.62936896 16.08344,26.91432296 -1.25052,3.420481 -4.05527,6.281686 -113.87307,116.165351 l -112.59097,112.6585 112.56893,112.657 c 125.48822,125.58639 115.14377,114.51247 115.14377,123.26362 0,3.64222 -0.29192,5.01105 -1.70589,7.99883 -2.00597,4.23873 -5.1121,7.50512 -9.17186,9.64509 -2.55804,1.34838 -3.61461,1.54151 -8.4749,1.54908 -4.65547,0.007 -6.02465,-0.21648 -8.4749,-1.38491 -2.37665,-1.13333 -23.90542,-22.36128 -115.28789,-113.677 L 256.00049,283.88715 143.63498,396.17059 C 52.023783,487.71486 30.729692,508.71032 28.347086,509.84163 c -3.113062,1.47815 -10.776654,2.13266 -13.735186,1.17306 z"
   id="path4717"
   inkscape:connector-curvature="0" /><path
   style="opacity:1;fill:#f5edf1;fill-opacity:1;fill-rule:evenodd;stroke:#8a8b02;stroke-width:0.58539641;stroke-miterlimit:4;stroke-dasharray:none;stroke-opacity:0.97560975"
   d="M 11.831727,509.17429 C 5.3638444,505.94225 1.9707532,500.77169 1.2302421,493.01923 0.89593227,489.51932 1.0079806,488.21961 1.7921457,486.50142 4.1949269,481.23666 12.331256,472.91231 141.67431,343.38679 L 228.74816,256.19011 121.99839,149.19621 C 63.286021,90.349563 12.368011,39.037358 8.8472582,35.169086 1.6147129,27.222646 0.79224109,25.386212 1.2997297,18.316788 1.9786726,8.8589711 10.039064,1.0911997 19.235254,1.0323862 21.353605,1.0188385 24.401873,1.373123 26.009182,1.8196852 29.239797,2.717254 33.366667,6.7755784 190.6853,163.7606 l 65.31519,65.17669 65.31519,-65.17827 C 477.95056,7.4524852 482.76077,2.7222889 485.99179,1.8220222 c 1.60731,-0.4478475 4.65558,-0.8031837 6.77394,-0.789636 9.62778,0.061574 18.06629,8.8053274 18.06629,18.7198008 0,6.296128 -0.75202,7.806958 -7.66858,15.406225 -3.49888,3.844229 -54.40994,55.149179 -113.13571,114.010998 L 283.2536,256.1909 l 87.36596,87.48852 c 100.30347,100.44417 128.9887,129.42479 134.61384,136.00003 5.33696,6.23837 6.14596,8.18361 5.6157,13.50287 -0.69399,6.96173 -4.26675,12.56959 -9.99405,15.68677 -2.64201,1.43796 -3.77497,1.68969 -7.8079,1.73481 -8.18212,0.0915 -7.93209,0.22909 -19.47403,-10.71302 -5.70674,-5.41016 -56.99508,-56.31521 -113.9741,-113.12233 L 256.00082,283.48288 152.40228,386.76759 C 95.423089,443.57418 44.167348,494.44827 38.500638,499.82112 c -10.0182,9.49868 -10.396669,9.78761 -13.686546,10.44831 -5.772665,1.15932 -9.018774,0.88549 -12.982365,-1.09514 z"
   id="path4719"
   inkscape:connector-curvature="0" /></svg>