<?xml version="1.0" encoding="UTF-8" standalone="no"?>
<!-- Generator: Adobe Illustrator 19.0.0, SVG Export Plug-In . SVG Version: 6.00 Build 0)  -->

<svg
   xmlns:dc="http://purl.org/dc/elements/1.1/"
   xmlns:cc="http://creativecommons.org/ns#"
   xmlns:rdf="http://www.w3.org/1999/02/22-rdf-syntax-ns#"
   xmlns:svg="http://www.w3.org/2000/svg"
   xmlns="http://www.w3.org/2000/svg"
   xmlns:sodipodi="http://sodipodi.sourceforge.net/DTD/sodipodi-0.dtd"
   xmlns:inkscape="http://www.inkscape.org/namespaces/inkscape"
   version="1.1"
   id="Layer_1"
   x="0px"
   y="0px"
   viewBox="0 0 512 512"
   style="enable-background:new 0 0 512 512;"
   xml:space="preserve"
   sodipodi:docname="maximum-white.svg"
   inkscape:version="0.92.4 (5da689c313, 2019-01-14)"><metadata
   id="metadata5610"><rdf:RDF><cc:Work
       rdf:about=""><dc:format>image/svg+xml</dc:format><dc:type
         rdf:resource="http://purl.org/dc/dcmitype/StillImage" /><dc:title></dc:title></cc:Work></rdf:RDF></metadata><defs
   id="defs5608" /><sodipodi:namedview
   pagecolor="#ffffff"
   bordercolor="#666666"
   borderopacity="1"
   objecttolerance="10"
   gridtolerance="10"
   guidetolerance="10"
   inkscape:pageopacity="0"
   inkscape:pageshadow="2"
   inkscape:window-width="1920"
   inkscape:window-height="1048"
   id="namedview5606"
   showgrid="false"
   inkscape:zoom="1.7109375"
   inkscape:cx="256"
   inkscape:cy="256"
   inkscape:window-x="0"
   inkscape:window-y="32"
   inkscape:window-maximized="1"
   inkscape:current-layer="Layer_1" />
<g
   id="g5567">
	<g
   id="g5565">
		<path
   d="M175.445,336.555c-5-5.009-13.099-5.009-18.099,0L25.6,468.301V396.8c0-7.074-5.726-12.8-12.8-12.8    C5.726,384,0,389.726,0,396.8v102.4c0,7.074,5.726,12.8,12.8,12.8h102.4c7.074,0,12.8-5.726,12.8-12.8    c0-7.074-5.726-12.8-12.8-12.8H43.699l131.746-131.746C180.446,349.653,180.446,341.555,175.445,336.555z"
   id="path5563" />
	</g>
</g>
<g
   id="g5573">
	<g
   id="g5571">
		<path
   d="M499.2,0H396.8C389.726,0,384,5.726,384,12.8c0,7.074,5.726,12.8,12.8,12.8h71.492L336.555,157.346    c-5.001,5.001-5.001,13.099,0,18.099c5,5.001,13.099,5.001,18.099,0L486.4,43.699V115.2c0,7.074,5.726,12.8,12.8,12.8    c7.074,0,12.8-5.726,12.8-12.8V12.8C512,5.726,506.274,0,499.2,0z"
   id="path5569" />
	</g>
</g>
<g
   id="g5575">
</g>
<g
   id="g5577">
</g>
<g
   id="g5579">
</g>
<g
   id="g5581">
</g>
<g
   id="g5583">
</g>
<g
   id="g5585">
</g>
<g
   id="g5587">
</g>
<g
   id="g5589">
</g>
<g
   id="g5591">
</g>
<g
   id="g5593">
</g>
<g
   id="g5595">
</g>
<g
   id="g5597">
</g>
<g
   id="g5599">
</g>
<g
   id="g5601">
</g>
<g
   id="g5603">
</g>
<path
   style="opacity:1;fill:#f5edf1;fill-opacity:1;fill-rule:evenodd;stroke:#8a8b02;stroke-width:0.58539528;stroke-miterlimit:4;stroke-dasharray:none;stroke-opacity:0.97560975"
   d="M 7.0965696,510.27546 C 3.875647,508.67505 1.4147823,505.30368 0.59892521,501.37371 0.1618145,499.26817 0.01497857,482.01402 0.12800351,446.03746 l 0.16423393,-52.27673 1.29810566,-2.42748 c 4.6453002,-8.68681 16.2649039,-9.38088 21.6191419,-1.29138 l 1.630698,2.46375 0.158542,37.88783 c 0.0872,20.8383 0.348653,37.88783 0.581011,37.88783 0.232358,0 30.407589,-29.97371 67.056067,-66.60824 47.139567,-47.12162 67.269327,-66.87113 68.806607,-67.50685 10.48195,-4.33463 20.8444,6.30784 16.19794,16.63564 -0.92166,2.04858 -15.87082,17.32499 -67.60956,69.08957 l -66.426251,66.45943 37.375812,0.17071 c 35.181569,0.16067 37.495909,0.23476 39.421479,1.26189 4.71112,2.51301 7.09443,6.27158 7.13925,11.2588 0.0372,4.14654 -1.96946,8.08288 -5.32181,10.43918 l -2.50224,1.75877 -55.036596,0.15048 -55.0365984,0.15048 z"
   id="path5612"
   inkscape:connector-curvature="0" /><path
   style="opacity:1;fill:#f5edf1;fill-opacity:1;fill-rule:evenodd;stroke:#8a8b02;stroke-width:0.58539528;stroke-miterlimit:4;stroke-dasharray:none;stroke-opacity:0.97560975"
   d="m 341.47295,178.22072 c -6.68422,-2.54589 -10.09514,-10.20125 -7.42365,-16.66141 0.63571,-1.53728 20.38522,-21.66704 67.50685,-68.806612 36.63453,-36.648478 66.60823,-66.8293 66.60823,-67.06849 0,-0.239191 -16.63561,-0.440669 -36.96803,-0.447729 -34.60455,-0.01202 -37.11751,-0.0814 -39.30594,-1.085299 -4.83029,-2.215794 -7.46868,-6.316024 -7.42707,-11.542137 0.0438,-5.5041657 3.95117,-10.5299434 9.21762,-11.85604957 3.52722,-0.88816537 105.11086,-0.88816537 108.63808,0 3.17063,0.79837377 6.40578,3.42958717 8.09062,6.58025337 l 1.2981,2.4274838 V 63.840158 117.91959 l -1.49312,2.90152 c -2.14834,4.17477 -5.4046,6.30047 -10.11045,6.60011 -5.53058,0.35216 -9.50177,-1.95001 -12.11856,-7.02533 -1.067,-2.06948 -1.11805,-3.88398 -1.11805,-39.738315 V 43.087754 l -66.77626,66.710556 c -36.72694,36.69081 -67.66064,67.15402 -68.74156,67.69601 -2.55962,1.28345 -7.46674,1.64435 -9.87681,0.7264 z"
   id="path5614"
   inkscape:connector-curvature="0" /></svg>